<!--
  - Copyright (c) 2023-2025 Leon Linhart
  - All rights reserved.
  -->
<svg xmlns="http://www.w3.org/2000/svg" viewBox="0 0 64 64"  width="64" height="64">
  <style>
    :root {
      --background-color: white;
      --fill-color: #953800;
    }

    @media (prefers-color-scheme: dark) {
      :root {
        --background-color: #121212;
        --fill-color: #ffa657;
      }
    }

    rect {
      fill: var(--background-color);
    }

  </style>
  <rect x="0" y="0" width="64" height="64" rx="4" ry="4" />
  <path
    id="path5"
    style="font-size:74.2745px;line-height:1.25;font-family:'JetBrains Mono';-inkscape-font-specification:'JetBrains Mono, Normal';fill: var(--fill-color);stroke-width:1.85686"
    d="m 12.908658,10.831783 c -1.832099,0 -3.3177032,0.519754 -4.4565752,1.559594 -1.138873,0.990324 -1.708423,2.327575 -1.708423,4.011125 0,1.68355 0.56955,3.045182 1.708423,4.085022 1.138872,0.990324 2.6244762,1.485181 4.4565752,1.485181 1.881616,0 3.391601,-0.494857 4.530473,-1.485181 1.089355,-1.03984 1.634009,-2.401472 1.634009,-4.085022 0,-1.68355 -0.544653,-3.020801 -1.634009,-4.011125 -1.138872,-1.03984 -2.648857,-1.559594 -4.530473,-1.559594 z m 12.410095,1.48518 v 6.684864 l 23.024948,11.364164 c 0.84178,0.445646 1.68366,0.841427 2.52543,1.188041 0.84178,0.297098 1.4855,0.495246 1.93115,0.594279 -0.39613,0.09903 -1.01548,0.322079 -1.85725,0.668693 -0.79226,0.297098 -1.65852,0.668498 -2.59933,1.114144 l -23.024948,11.28975 v 6.461621 L 57.25634,35.713468 V 28.286014 Z M 12.908658,42.026778 c -1.832099,0 -3.3177032,0.520272 -4.4565752,1.560111 -1.138873,0.990324 -1.708423,2.327059 -1.708423,4.010608 0,1.683552 0.56955,3.045183 1.708423,4.085022 1.138872,0.990324 2.6244762,1.485698 4.4565752,1.485698 1.881616,0 3.391601,-0.495374 4.530473,-1.485698 1.089355,-1.039839 1.634009,-2.40147 1.634009,-4.085022 0,-1.683549 -0.544653,-3.020284 -1.634009,-4.010608 -1.138872,-1.039839 -2.648857,-1.560111 -4.530473,-1.560111 z" />
</svg>